<?xml version="1.0" encoding="UTF-8" standalone="no"?>
<!DOCTYPE svg PUBLIC "-//W3C//DTD SVG 1.1//EN"
 "http://www.w3.org/Graphics/SVG/1.1/DTD/svg11.dtd">
<!-- Generated by graphviz version 2.43.0 (0)
 -->
<!-- Title: G Pages: 1 -->
<svg width="717pt" height="652pt"
 viewBox="0.00 0.00 717.00 652.00" xmlns="http://www.w3.org/2000/svg" xmlns:xlink="http://www.w3.org/1999/xlink">
<g id="graph0" class="graph" transform="scale(1 1) rotate(0) translate(4 648)">
<title>G</title>
<polygon fill="white" stroke="transparent" points="-4,4 -4,-648 713,-648 713,4 -4,4"/>
<g id="clust1" class="cluster">
<title>cluster_input</title>
<polygon fill="lightgrey" stroke="lightgrey" points="95,-559 95,-636 376,-636 376,-559 95,-559"/>
<text text-anchor="middle" x="235.5" y="-620.8" font-family="Times,serif" font-size="14.00">Local Geometry Definition</text>
</g>
<g id="clust2" class="cluster">
<title>cluster_logical</title>
<polygon fill="lightyellow" stroke="lightyellow" points="95,-424 95,-531 403,-531 403,-424 95,-424"/>
<text text-anchor="middle" x="249" y="-515.8" font-family="Times,serif" font-size="14.00">Logical Indices (Canonical C&#45;order)</text>
</g>
<g id="clust3" class="cluster">
<title>cluster_local</title>
<polygon fill="lightgreen" stroke="lightgreen" points="348,-279 348,-386 508,-386 508,-279 348,-279"/>
<text text-anchor="middle" x="428" y="-370.8" font-family="Times,serif" font-size="14.00">Local Coordinates</text>
</g>
<g id="clust4" class="cluster">
<title>cluster_worldframe</title>
<polygon fill="lightcyan" stroke="lightcyan" points="440,-559 440,-636 701,-636 701,-559 440,-559"/>
<text text-anchor="middle" x="570.5" y="-620.8" font-family="Times,serif" font-size="14.00">World Frame Definition</text>
</g>
<g id="clust5" class="cluster">
<title>cluster_transform</title>
<polygon fill="lightpink" stroke="lightpink" points="311,-159 311,-251 525,-251 525,-159 311,-159"/>
<text text-anchor="middle" x="418" y="-235.8" font-family="Times,serif" font-size="14.00">Axis Transformation</text>
</g>
<g id="clust6" class="cluster">
<title>cluster_world</title>
<polygon fill="lavender" stroke="lavender" points="8,-8 8,-131 497,-131 497,-8 8,-8"/>
<text text-anchor="middle" x="252.5" y="-115.8" font-family="Times,serif" font-size="14.00">World Coordinates</text>
</g>
<!-- corner -->
<g id="node1" class="node">
<title>corner</title>
<path fill="lightblue" stroke="black" d="M254.5,-605C254.5,-605 207.5,-605 207.5,-605 201.5,-605 195.5,-599 195.5,-593 195.5,-593 195.5,-579 195.5,-579 195.5,-573 201.5,-567 207.5,-567 207.5,-567 254.5,-567 254.5,-567 260.5,-567 266.5,-573 266.5,-579 266.5,-579 266.5,-593 266.5,-593 266.5,-599 260.5,-605 254.5,-605"/>
<text text-anchor="middle" x="231" y="-589.8" font-family="Arial" font-size="14.00">corner</text>
<text text-anchor="middle" x="231" y="-574.8" font-family="Arial" font-size="14.00">(i₀, j₀, k₀)</text>
</g>
<!-- ijk -->
<g id="node4" class="node">
<title>ijk</title>
<path fill="lightyellow" stroke="black" d="M165.5,-500C165.5,-500 114.5,-500 114.5,-500 108.5,-500 102.5,-494 102.5,-488 102.5,-488 102.5,-444 102.5,-444 102.5,-438 108.5,-432 114.5,-432 114.5,-432 165.5,-432 165.5,-432 171.5,-432 177.5,-438 177.5,-444 177.5,-444 177.5,-488 177.5,-488 177.5,-494 171.5,-500 165.5,-500"/>
<text text-anchor="middle" x="140" y="-484.8" font-family="Arial" font-size="14.00">(i, j, k)</text>
<text text-anchor="middle" x="140" y="-469.8" font-family="Arial" font-size="14.00">0 ≤ i &lt; nᵢ</text>
<text text-anchor="middle" x="140" y="-454.8" font-family="Arial" font-size="14.00">0 ≤ j &lt; nⱼ</text>
<text text-anchor="middle" x="140" y="-439.8" font-family="Arial" font-size="14.00">0 ≤ k &lt; nₖ</text>
</g>
<!-- corner&#45;&gt;ijk -->
<g id="edge1" class="edge">
<title>corner&#45;&gt;ijk</title>
<path fill="none" stroke="black" d="M205.83,-566.7C205.83,-539.99 205.83,-495 205.83,-495 205.83,-495 187.53,-495 187.53,-495"/>
<polygon fill="black" stroke="black" points="187.53,-491.5 177.53,-495 187.53,-498.5 187.53,-491.5"/>
<text text-anchor="middle" x="235" y="-541.8" font-family="Arial" font-size="9.00">define grid</text>
</g>
<!-- local -->
<g id="node6" class="node">
<title>local</title>
<path fill="lightgreen" stroke="black" d="M487.5,-355C487.5,-355 368.5,-355 368.5,-355 362.5,-355 356.5,-349 356.5,-343 356.5,-343 356.5,-299 356.5,-299 356.5,-293 362.5,-287 368.5,-287 368.5,-287 487.5,-287 487.5,-287 493.5,-287 499.5,-293 499.5,-299 499.5,-299 499.5,-343 499.5,-343 499.5,-349 493.5,-355 487.5,-355"/>
<text text-anchor="middle" x="428" y="-339.8" font-family="Arial" font-size="14.00">Local Grid Position</text>
<text text-anchor="middle" x="428" y="-324.8" font-family="Arial" font-size="14.00">u = u₀ + (i + 0.5)·dx</text>
<text text-anchor="middle" x="428" y="-309.8" font-family="Arial" font-size="14.00">v = v₀ + (j + 0.5)·dy</text>
<text text-anchor="middle" x="428" y="-294.8" font-family="Arial" font-size="14.00">w = w₀ + (k + 0.5)·dz</text>
</g>
<!-- corner&#45;&gt;local -->
<g id="edge7" class="edge">
<title>corner&#45;&gt;local</title>
<path fill="none" stroke="black" d="M216.17,-566.94C216.17,-506.18 216.17,-321 216.17,-321 216.17,-321 346.28,-321 346.28,-321"/>
<polygon fill="black" stroke="black" points="346.28,-324.5 356.28,-321 346.28,-317.5 346.28,-324.5"/>
<text text-anchor="middle" x="449" y="-463.8" font-family="Arial" font-size="9.00">translate</text>
</g>
<!-- blocksize -->
<g id="node2" class="node">
<title>blocksize</title>
<path fill="lightblue" stroke="black" d="M355.5,-605C355.5,-605 296.5,-605 296.5,-605 290.5,-605 284.5,-599 284.5,-593 284.5,-593 284.5,-579 284.5,-579 284.5,-573 290.5,-567 296.5,-567 296.5,-567 355.5,-567 355.5,-567 361.5,-567 367.5,-573 367.5,-579 367.5,-579 367.5,-593 367.5,-593 367.5,-599 361.5,-605 355.5,-605"/>
<text text-anchor="middle" x="326" y="-589.8" font-family="Arial" font-size="14.00">block_size</text>
<text text-anchor="middle" x="326" y="-574.8" font-family="Arial" font-size="14.00">(dx, dy, dz)</text>
</g>
<!-- blocksize&#45;&gt;ijk -->
<g id="edge2" class="edge">
<title>blocksize&#45;&gt;ijk</title>
<path fill="none" stroke="black" d="M326,-566.57C326,-538.52 326,-490 326,-490 326,-490 187.64,-490 187.64,-490"/>
<polygon fill="black" stroke="black" points="187.64,-486.5 177.64,-490 187.64,-493.5 187.64,-486.5"/>
<text text-anchor="middle" x="320" y="-541.8" font-family="Arial" font-size="9.00">cell size</text>
</g>
<!-- blocksize&#45;&gt;local -->
<g id="edge6" class="edge">
<title>blocksize&#45;&gt;local</title>
<path fill="none" stroke="black" d="M367.61,-586C393.35,-586 421.5,-586 421.5,-586 421.5,-586 421.5,-365.1 421.5,-365.1"/>
<polygon fill="black" stroke="black" points="425,-365.1 421.5,-355.1 418,-365.1 425,-365.1"/>
<text text-anchor="middle" x="514" y="-463.8" font-family="Arial" font-size="9.00">scale</text>
</g>
<!-- shape -->
<g id="node3" class="node">
<title>shape</title>
<path fill="lightblue" stroke="black" d="M165,-605C165,-605 115,-605 115,-605 109,-605 103,-599 103,-593 103,-593 103,-579 103,-579 103,-573 109,-567 115,-567 115,-567 165,-567 165,-567 171,-567 177,-573 177,-579 177,-579 177,-593 177,-593 177,-599 171,-605 165,-605"/>
<text text-anchor="middle" x="140" y="-589.8" font-family="Arial" font-size="14.00">shape</text>
<text text-anchor="middle" x="140" y="-574.8" font-family="Arial" font-size="14.00">(nᵢ, nⱼ, nₖ)</text>
</g>
<!-- shape&#45;&gt;ijk -->
<g id="edge3" class="edge">
<title>shape&#45;&gt;ijk</title>
<path fill="none" stroke="black" d="M140,-566.99C140,-566.99 140,-510.4 140,-510.4"/>
<polygon fill="black" stroke="black" points="143.5,-510.4 140,-500.4 136.5,-510.4 143.5,-510.4"/>
<text text-anchor="middle" x="155.5" y="-541.8" font-family="Arial" font-size="9.00">bounds</text>
</g>
<!-- rowindex -->
<g id="node5" class="node">
<title>rowindex</title>
<path fill="lightyellow" stroke="black" d="M383.5,-485C383.5,-485 238.5,-485 238.5,-485 232.5,-485 226.5,-479 226.5,-473 226.5,-473 226.5,-459 226.5,-459 226.5,-453 232.5,-447 238.5,-447 238.5,-447 383.5,-447 383.5,-447 389.5,-447 395.5,-453 395.5,-459 395.5,-459 395.5,-473 395.5,-473 395.5,-479 389.5,-485 383.5,-485"/>
<text text-anchor="middle" x="311" y="-469.8" font-family="Arial" font-size="14.00">Flat Row Index (block_id)</text>
<text text-anchor="middle" x="311" y="-454.8" font-family="Arial" font-size="14.00">r = i + nᵢ(j + nⱼ·k)</text>
</g>
<!-- ijk&#45;&gt;rowindex -->
<g id="edge4" class="edge">
<title>ijk&#45;&gt;rowindex</title>
<path fill="none" stroke="black" d="M177.53,-466C177.53,-466 216.25,-466 216.25,-466"/>
<polygon fill="black" stroke="black" points="216.25,-469.5 226.25,-466 216.25,-462.5 216.25,-469.5"/>
</g>
<!-- ijk&#45;&gt;local -->
<g id="edge5" class="edge">
<title>ijk&#45;&gt;local</title>
<path fill="none" stroke="black" d="M177.62,-442C245.74,-442 382.5,-442 382.5,-442 382.5,-442 382.5,-365.03 382.5,-365.03"/>
<polygon fill="black" stroke="black" points="386,-365.03 382.5,-355.03 379,-365.03 386,-365.03"/>
<text text-anchor="middle" x="209.5" y="-406.8" font-family="Arial" font-size="9.00">apply</text>
<text text-anchor="middle" x="209.5" y="-396.8" font-family="Arial" font-size="9.00">offsets</text>
</g>
<!-- local&#45;&gt;ijk -->
<g id="edge15" class="edge">
<title>local&#45;&gt;ijk</title>
<path fill="none" stroke="black" stroke-dasharray="5,2" d="M369.5,-355.18C369.5,-389.39 369.5,-437 369.5,-437 369.5,-437 187.64,-437 187.64,-437"/>
<polygon fill="black" stroke="black" points="187.64,-433.5 177.64,-437 187.64,-440.5 187.64,-433.5"/>
</g>
<!-- rotation -->
<g id="node9" class="node">
<title>rotation</title>
<path fill="lightsalmon" stroke="black" d="M504.5,-220C504.5,-220 331.5,-220 331.5,-220 325.5,-220 319.5,-214 319.5,-208 319.5,-208 319.5,-179 319.5,-179 319.5,-173 325.5,-167 331.5,-167 331.5,-167 504.5,-167 504.5,-167 510.5,-167 516.5,-173 516.5,-179 516.5,-179 516.5,-208 516.5,-208 516.5,-214 510.5,-220 504.5,-220"/>
<text text-anchor="middle" x="418" y="-204.8" font-family="Arial" font-size="14.00">Rotation Matrix R</text>
<text text-anchor="middle" x="418" y="-189.8" font-family="Arial" font-size="14.00">R = [axis_u | axis_v | axis_w]ᵀ</text>
<text text-anchor="middle" x="418" y="-174.8" font-family="Arial" font-size="14.00">R⁻¹ = Rᵀ (orthonormal)</text>
</g>
<!-- local&#45;&gt;rotation -->
<g id="edge8" class="edge">
<title>local&#45;&gt;rotation</title>
<path fill="none" stroke="black" d="M404.17,-286.83C404.17,-286.83 404.17,-230.08 404.17,-230.08"/>
<polygon fill="black" stroke="black" points="407.67,-230.08 404.17,-220.08 400.67,-230.08 407.67,-230.08"/>
<text text-anchor="middle" x="397.5" y="-261.8" font-family="Arial" font-size="9.00">rotate local frame</text>
</g>
<!-- origin -->
<g id="node7" class="node">
<title>origin</title>
<path fill="azure" stroke="black" d="M681.5,-605C681.5,-605 626.5,-605 626.5,-605 620.5,-605 614.5,-599 614.5,-593 614.5,-593 614.5,-579 614.5,-579 614.5,-573 620.5,-567 626.5,-567 626.5,-567 681.5,-567 681.5,-567 687.5,-567 693.5,-573 693.5,-579 693.5,-579 693.5,-593 693.5,-593 693.5,-599 687.5,-605 681.5,-605"/>
<text text-anchor="middle" x="654" y="-589.8" font-family="Arial" font-size="14.00">origin</text>
<text text-anchor="middle" x="654" y="-574.8" font-family="Arial" font-size="14.00">(x₀, y₀, z₀)</text>
</g>
<!-- world -->
<g id="node10" class="node">
<title>world</title>
<path fill="lavender" stroke="black" d="M476.5,-100C476.5,-100 327.5,-100 327.5,-100 321.5,-100 315.5,-94 315.5,-88 315.5,-88 315.5,-28 315.5,-28 315.5,-22 321.5,-16 327.5,-16 327.5,-16 476.5,-16 476.5,-16 482.5,-16 488.5,-22 488.5,-28 488.5,-28 488.5,-88 488.5,-88 488.5,-94 482.5,-100 476.5,-100"/>
<text text-anchor="middle" x="402" y="-84.8" font-family="Arial" font-size="14.00">(x, y, z)</text>
<text text-anchor="middle" x="402" y="-69.8" font-family="Arial" font-size="14.00">centroid positions</text>
<text text-anchor="middle" x="402" y="-54.8" font-family="Arial" font-size="14.00">in world space</text>
<text text-anchor="middle" x="402" y="-23.8" font-family="Arial" font-size="14.00">world = origin + R @ local</text>
</g>
<!-- origin&#45;&gt;world -->
<g id="edge10" class="edge">
<title>origin&#45;&gt;world</title>
<path fill="none" stroke="black" d="M654,-566.86C654,-472.02 654,-57 654,-57 654,-57 498.72,-57 498.72,-57"/>
<polygon fill="black" stroke="black" points="498.72,-53.5 488.72,-57 498.72,-60.5 498.72,-53.5"/>
<text text-anchor="middle" x="554" y="-318.8" font-family="Arial" font-size="9.00">translate</text>
</g>
<!-- axes -->
<g id="node8" class="node">
<title>axes</title>
<path fill="lightcyan" stroke="black" d="M584.5,-605C584.5,-605 459.5,-605 459.5,-605 453.5,-605 447.5,-599 447.5,-593 447.5,-593 447.5,-579 447.5,-579 447.5,-573 453.5,-567 459.5,-567 459.5,-567 584.5,-567 584.5,-567 590.5,-567 596.5,-573 596.5,-579 596.5,-579 596.5,-593 596.5,-593 596.5,-599 590.5,-605 584.5,-605"/>
<text text-anchor="middle" x="522" y="-589.8" font-family="Arial" font-size="14.00">Axis Vectors</text>
<text text-anchor="middle" x="522" y="-574.8" font-family="Arial" font-size="14.00">axis_u, axis_v, axis_w</text>
</g>
<!-- axes&#45;&gt;rotation -->
<g id="edge9" class="edge">
<title>axes&#45;&gt;rotation</title>
<path fill="none" stroke="black" d="M508,-566.8C508,-566.8 508,-230.12 508,-230.12"/>
<polygon fill="black" stroke="black" points="511.5,-230.12 508,-220.12 504.5,-230.12 511.5,-230.12"/>
<text text-anchor="middle" x="600" y="-406.8" font-family="Arial" font-size="9.00">define</text>
<text text-anchor="middle" x="600" y="-396.8" font-family="Arial" font-size="9.00">orientation</text>
</g>
<!-- rotation&#45;&gt;local -->
<g id="edge14" class="edge">
<title>rotation&#45;&gt;local</title>
<path fill="none" stroke="black" stroke-dasharray="5,2" d="M451.83,-220.23C451.83,-220.23 451.83,-276.54 451.83,-276.54"/>
<polygon fill="black" stroke="black" points="448.33,-276.54 451.83,-286.54 455.33,-276.54 448.33,-276.54"/>
</g>
<!-- rotation&#45;&gt;world -->
<g id="edge11" class="edge">
<title>rotation&#45;&gt;world</title>
<path fill="none" stroke="black" d="M375.83,-166.73C375.83,-166.73 375.83,-110.19 375.83,-110.19"/>
<polygon fill="black" stroke="black" points="379.33,-110.19 375.83,-100.19 372.33,-110.19 379.33,-110.19"/>
<text text-anchor="middle" x="390" y="-141.8" font-family="Arial" font-size="9.00">R @ local</text>
</g>
<!-- world&#45;&gt;rotation -->
<g id="edge13" class="edge">
<title>world&#45;&gt;rotation</title>
<path fill="none" stroke="black" stroke-dasharray="5,2" d="M432.17,-100.13C432.17,-100.13 432.17,-156.76 432.17,-156.76"/>
<polygon fill="black" stroke="black" points="428.67,-156.76 432.17,-166.76 435.67,-156.76 428.67,-156.76"/>
<text text-anchor="middle" x="459.5" y="-141.8" font-family="Arial" font-size="9.00">R⁻¹ (inverse)</text>
</g>
<!-- world_id -->
<g id="node11" class="node">
<title>world_id</title>
<path fill="aliceblue" stroke="black" stroke-dasharray="5,2" d="M252,-77C252,-77 28,-77 28,-77 22,-77 16,-71 16,-65 16,-65 16,-51 16,-51 16,-45 22,-39 28,-39 28,-39 252,-39 252,-39 258,-39 264,-45 264,-51 264,-51 264,-65 264,-65 264,-71 258,-77 252,-77"/>
<text text-anchor="middle" x="140" y="-61.8" font-family="Arial" font-size="14.00">world_id = encode_coordinates(x, y, z)</text>
<text text-anchor="middle" x="140" y="-46.8" font-family="Arial" font-size="14.00">stable 64&#45;bit positional identifier</text>
</g>
<!-- world&#45;&gt;world_id -->
<g id="edge12" class="edge">
<title>world&#45;&gt;world_id</title>
<path fill="none" stroke="black" stroke-dasharray="5,2" d="M315.49,-58C315.49,-58 274.34,-58 274.34,-58"/>
<polygon fill="black" stroke="black" points="274.34,-54.5 264.34,-58 274.34,-61.5 274.34,-54.5"/>
</g>
</g>
</svg>
